<?xml version="1.0" encoding="UTF-8"?><svg id="a" xmlns="http://www.w3.org/2000/svg" viewBox="0 0 388.78 251.08"><defs><style>.b{fill:#fff;stroke-width:0px;}</style></defs><path class="b" d="m338.02,241.51h4.52v5.73c-1.15.65-2.57.97-4.25.97-2.39,0-4.25-.73-5.64-2.2-1.37-1.46-2.06-3.47-2.06-6.05s.74-4.52,2.24-6.08c1.48-1.56,3.39-2.34,5.71-2.34s4.22.51,5.88,1.54v-2.49c-1.44-.72-3.31-1.08-5.6-1.08-3.05,0-5.58.99-7.59,2.99-1.99,1.99-3,4.54-3,7.63s.9,5.48,2.71,7.31c1.81,1.85,4.16,2.78,7.03,2.78,2.5,0,4.78-.58,6.83-1.72v-9h-6.78v2.01Z"/><path class="b" d="m377.87,238.33l-5.89-9.59h-2.9l7.48,11.69-.05,9.9h2.55l.06-9.97,7.54-11.62h-2.69s-5.99,9.29-6.1,9.59Z"/><path class="b" d="m214.32,229.52c-2.66,0-4.75.95-6.29,2.88-1.53,1.93-2.29,4.5-2.29,7.7,0,2.98.75,5.41,2.28,7.29,1.51,1.88,3.51,2.83,6.01,2.83s4.65-.97,6.17-2.9c1.51-1.94,2.26-4.52,2.26-7.71,0-2.98-.74-5.4-2.24-7.28-1.5-1.88-3.47-2.81-5.91-2.81Zm4.42,16.49c-1.13,1.48-2.71,2.21-4.72,2.21-1.9,0-3.41-.78-4.54-2.34-1.14-1.55-1.71-3.55-1.71-5.97s.59-4.43,1.75-6.02c1.16-1.57,2.7-2.35,4.64-2.35s3.54.74,4.62,2.23c1.1,1.49,1.64,3.55,1.64,6.16s-.56,4.61-1.69,6.09Z"/><polygon class="b" points="251.69 230.29 249.25 230.29 249.25 250.33 260.69 250.33 260.69 248.31 251.69 248.31 251.69 230.29"/><path class="b" d="m295.65,230.38c-2.44,0-4.38.95-5.79,2.88-1.41,1.92-2.12,4.5-2.12,7.69,0,2.99.7,5.41,2.1,7.3,1.4,1.87,3.25,2.82,5.55,2.82s4.31-.97,5.69-2.9c1.4-1.93,2.1-4.51,2.1-7.71,0-2.98-.7-5.39-2.08-7.28-1.37-1.87-3.19-2.8-5.45-2.8Zm4.08,16.48c-1.04,1.48-2.5,2.21-4.36,2.21-1.74,0-3.13-.77-4.18-2.34-1.04-1.55-1.57-3.55-1.57-5.97s.54-4.43,1.6-6c1.08-1.57,2.5-2.36,4.28-2.36s3.27.75,4.27,2.24c1,1.48,1.51,3.55,1.51,6.16s-.53,4.6-1.56,6.08Z"/><path class="b" d="m178.91,244.53c0,1.32.05,2.3.14,2.97h-.05c-.05-.14-.3-.58-.73-1.32l-9.23-15.96h-2.64v20.04h2.01v-14.69c0-1.3-.03-2.23-.1-2.73h.06c.19.5.37.92.57,1.26l9.49,16.17h2.52v-20.04h-2.04v14.31Z"/><polygon class="b" points="138.36 239.15 128.22 239.15 128.22 230.31 126.11 230.31 126.11 250.33 128.22 250.33 128.22 241.15 138.36 241.15 138.36 250.33 140.47 250.33 140.47 230.31 138.36 230.31 138.36 239.15"/><path class="b" d="m87.22,232.56c-1.89,2.02-2.83,4.58-2.83,7.69,0,2.93.84,5.33,2.56,7.19,1.7,1.86,3.96,2.79,6.76,2.79,2.18,0,4.02-.4,5.5-1.2v-2.13c-1.48.9-3.22,1.33-5.22,1.33-2.22,0-3.98-.75-5.31-2.24-1.33-1.5-1.99-3.45-1.99-5.86s.71-4.57,2.11-6.18c1.41-1.6,3.3-2.41,5.68-2.41,1.74,0,3.31.39,4.74,1.18v-2.36c-1.25-.56-2.81-.83-4.7-.83-2.98,0-5.41,1.01-7.3,3.04Z"/><polygon class="b" points="47.71 241.06 56.89 241.06 56.89 239.05 47.71 239.05 47.71 232.24 57.65 232.24 57.65 230.22 44.94 230.22 44.94 250.26 58.21 250.26 58.21 248.24 47.71 248.24 47.71 241.06"/><polygon class="b" points="3.85 231.99 9.61 231.99 9.61 250.23 11.83 250.23 11.83 231.99 17.61 231.99 17.61 229.92 3.85 229.92 3.85 231.99"/><path class="b" d="m214.89,44.15l63.04,158.88L354.38,0l-76.45,156.72s-46.35-112.57-46.89-119.03c-.54-6.47,14-8.08,14-8.08v-3.23h-48.72v2.69c15.92,1.62,18.56,15.08,18.56,15.08Z"/><path class="b" d="m379.95,206.91c-2.38-1.29-4-3.23-4.85-5.8l-34.3-106.08-16.43-.1-30.78,97.16c-2.37,7.09-4.71,11.7-6.99,13.85-1.99,1.94-5.27,2.9-9.83,2.9v5.49h33.21v-5.49c-5.79,0-9.46-.8-10.98-2.42-2.09-2.04-2.14-6.22-.14-12.57l7.26-22.71h41.33l8.98,27.38c1.32,4.41.8,7.31-1.57,8.7-1.9,1.08-6.04,1.61-12.4,1.61v5.49h46.32v-5.49c-3.7,0-6.66-.64-8.83-1.93Zm-70.01-47.23l16.71-52.98,16.96,52.98h-33.66Z"/><path class="b" d="m233.02,169.38c-5.83,4.03-11.2,6.04-16.12,6.04h-19.79c-3.65,0-6.24-.48-7.79-1.43-1.72-1.06-2.59-2.98-2.59-5.75v-84.49c0-2.49,1.35-4.17,4.09-5.02,2.46-.78,6.83-1.15,13.1-1.15v-4.9h-47.1v4.9c5.92,0,9.7.37,11.33,1.15,1.46.66,2.18,2.34,2.18,5.02v32.47c-1.69-3.37-3.69-6.51-6.06-9.41-9.08-11.22-21.46-16.81-37.18-16.81s-28.71,5.59-37.96,16.81c-3.74,4.57-6.61,9.71-8.7,15.36-2.11-1.81-4.45-3.6-6.95-5.45-5.31-4.09-13.6-7.54-26.53-12.66-10.22-4.03-16.92-6.68-20.5-8.95-1.56-.99-2.88-2.04-4.03-3.14-5.01-4.15-8.9-10.67-6.3-17.12,1.19-2.94,3.29-4.94,5.26-6.47,3.23-2.3,9.81-4.39,16.65-4.49,10.57-.14,20.77,2.91,28.52,8.27.87.6,1.31,1,1.61,1.37,2.63,2.22,4.66,5.3,5.51,8.46.16,0,.31-.04.48-.04.2,0,.38.04.56.05l.02-28.47-3.66.23c-.87,2.42-2.08,4.08-3.66,4.99-1.44.91-3.3,1.3-5.59,1.14-1-.15-12.52-2.5-14.86-2.83-3.89-.45-9.05-.95-12.79-.95-10.91,0-21.68,2.82-27.73,9.97-5.12,6.04-6.46,12.13-6.46,21.06,0,11.67,6.89,19.25,16.96,25.65,6.09,3.87,14.17,8.2,28.09,13.18,9.61,3.49,16.15,6.29,19.59,8.41,5.59,3.48,8.4,7.65,8.4,12.49,0,7.27-2.23,12.95-6.68,17.03-2.45,2.17-4.89,3.37-7.72,4.28-.8.14-1.51.15-2.09.23-2.34.31-11.65-.5-12.73-.7-4.51-.84-8.71-1.89-12.9-3.52-8.91-2.93-17.49-7.67-22.03-14.45-.1-.14-.17-.29-.25-.42-1.27-1.98-2.17-4.14-2.66-6.47-.75-.03-1.51-.04-2.26-.1l.25,32.03,2.05-.04c.85-1.52,4.35-5.04,7.25-5.75,3.02-1.28,7.42-.46,10.43.54,1.6.37,3.17,1.04,5.42,1.87,1.15.45,3.02,1.06,5.6,1.82,3.01,1.06,5.38,1.82,7.1,2.27,2.72.76,5.38,1.29,7.97,1.59,10.04,1.51,18.94-.76,26.69-6.81,1.06-.83,2.05-1.72,2.98-2.64,2.12,6.91,5.34,13.01,9.71,18.31,9.16,10.92,21.81,16.38,37.96,16.38s28.28-5.46,37.18-16.38c1.48-1.78,2.78-3.7,3.99-5.68h72.38l5.04-27.81c-3.82,6.81-6.33,12.47-12.69,16.88Zm-106.29,27.94c-10.73,0-18.94-5.36-24.61-16.08-4.8-9.2-7.2-20.88-7.2-35.07s2.4-25.86,7.2-35.07c5.67-10.72,13.88-16.09,24.61-16.09s18.81,5.37,24.47,16.09c4.9,9.2,7.33,20.89,7.33,35.07s-2.44,25.87-7.33,35.07c-5.67,10.72-13.82,16.08-24.47,16.08Z"/></svg>